<?xml version="1.0" encoding="utf-8"?>
<!-- Generator: Adobe Illustrator 16.0.0, SVG Export Plug-In . SVG Version: 6.00 Build 0)  -->
<!DOCTYPE svg PUBLIC "-//W3C//DTD SVG 1.1//EN" "http://www.w3.org/Graphics/SVG/1.1/DTD/svg11.dtd">
<svg version="1.1" id="Layer_1" xmlns="http://www.w3.org/2000/svg" xmlns:xlink="http://www.w3.org/1999/xlink" x="0px" y="0px"
	 width="250px" height="135.145px" viewBox="0 0 250 135.145" enable-background="new 0 0 250 135.145" xml:space="preserve">
<g>
	<path fill="#009444" d="M203.778,49.037h-46.51v16.922h26.771c-2.556,5.578-5.921,9.675-10.095,12.287
		c-4.176,2.621-9.301,3.928-15.383,3.928c-9.351,0-17.218-3.175-23.593-9.524c-6.374-6.345-9.563-14.092-9.563-23.229
		c0-8.834,3.072-16.345,9.214-22.52c6.146-6.181,13.768-9.268,22.867-9.268c10.443,0,19.585,4.247,27.424,12.744l12.394-12.552
		c-5.656-6.263-11.438-10.682-17.346-13.255c-6.999-3.046-14.519-4.567-22.563-4.567c-15.378,0-27.862,5.512-37.455,16.538
		c-7.307,8.37-11.276,18.079-11.986,29.108c0.802,0.548,1.574,1.121,2.309,1.737c6.109,5.146,9.206,12.665,9.206,22.35
		c0,3.762-0.557,7.252-1.626,10.456c3.894,5.311,8.684,9.593,14.382,12.825c7.521,4.267,16.077,6.403,25.675,6.403
		c8.962,0,16.777-1.956,23.441-5.859c6.661-3.902,12.088-9.563,16.278-16.985c4.189-7.423,6.281-15.272,6.281-23.554L203.778,49.037
		z"/>
	<path fill="#FBB040" d="M62.598,95.848c-5.313-2.379-9.348-5.48-12.095-9.311c-2.75-3.832-4.219-7.798-4.403-11.903
		c0-0.84,0.277-1.515,0.841-2.028c0.558-0.517,1.257-0.773,2.094-0.773h6.294c1.022,0,1.861,0.214,2.514,0.632
		c0.651,0.422,1.165,1.237,1.54,2.45c1.208,4.763,3.844,8.121,7.897,10.079c4.053,1.966,8.831,2.946,14.331,2.946
		c6.71,0,12.046-1.612,16.007-4.836c3.958-3.219,5.943-7.815,5.943-13.79c0-11.389-6.946-17.083-20.834-17.083h-13.14
		c-0.932,0-1.7-0.301-2.306-0.912c-0.606-0.607-0.907-1.375-0.907-2.311v-3.641c0-1.399,0.508-2.612,1.538-3.642l27.263-30.243
		H53.789c-0.932,0-1.704-0.282-2.306-0.839c-0.611-0.561-0.91-1.306-0.91-2.241V3.361c0-1.024,0.299-1.839,0.91-2.451
		c0.602-0.604,1.374-0.907,2.306-0.907h55.362c1.027,0,1.84,0.303,2.449,0.907c0.602,0.612,0.907,1.427,0.907,2.451v4.622
		c0,1.029-0.466,2.1-1.397,3.218L83.848,41.872h2.238c9.504,0.278,17.03,2.753,22.577,7.417c5.543,4.67,8.32,11.48,8.32,20.447
		c0,6.16-1.52,11.462-4.549,15.888c-3.026,4.438-7.245,7.846-12.649,10.225c-5.408,2.383-11.512,3.572-18.316,3.572
		C74.199,99.42,67.91,98.231,62.598,95.848z"/>
	<g>
		<path fill="#EC6EA1" d="M40.456,71.793L-0.011,55.007V44.44l40.467-16.816v12.641l-24.593,9.48l24.593,9.481V71.793z"/>
		<path fill="#EC6EA1" d="M209.546,59.227l24.592-9.481l-24.592-9.48V27.624l40.466,16.816v10.567l-40.466,16.786V59.227z"/>
	</g>
	<g>
		<path fill="#58595B" d="M63.216,113.97h2.781v21.175H63.1v-15.86l0.146,0.934l-5.213,11.983h-2.068l-5.214-11.693l0.146-1.224
			v15.86h-2.897V113.97h2.782l6.218,13.98L63.216,113.97z"/>
		<path fill="#58595B" d="M86.532,113.954h2.971v21.191h-2.971V113.954z M87.828,123.365h7.223c0.564,0,1.064-0.138,1.5-0.41
			c0.437-0.271,0.775-0.659,1.013-1.159c0.238-0.5,0.356-1.073,0.356-1.723c0-0.651-0.118-1.228-0.356-1.729
			c-0.238-0.502-0.572-0.885-1.005-1.155c-0.432-0.272-0.934-0.408-1.508-0.408h-7.223v-2.827h7.106
			c1.224,0,2.299,0.254,3.227,0.758c0.927,0.506,1.645,1.221,2.155,2.146c0.51,0.929,0.765,2.002,0.765,3.216
			c0,1.213-0.258,2.281-0.771,3.207c-0.516,0.929-1.236,1.646-2.164,2.152c-0.926,0.505-1.996,0.757-3.211,0.757h-7.106V123.365z
			 M93.595,125.535l2.956-0.672l5.418,10.282h-3.525L93.595,125.535z"/>
		<path fill="#58595B" d="M121.265,113.97h2.97v21.175h-2.97V113.97z M122.707,113.97h12.162v2.826h-12.162V113.97z
			 M122.707,123.217h10.557v2.824h-10.557V123.217z M122.707,132.319h12.162v2.826h-12.162V132.319z"/>
		<path fill="#58595B" d="M166.381,116.535l-9.219,15.784h9.509v2.826h-13.164v-2.564l9.292-15.784h-9.029v-2.826h12.611V116.535z
			 M155.662,108.917l1.659-1.747l2.841,2.185l2.841-2.185l1.66,1.747l-4.501,3.479L155.662,108.917z"/>
		<path fill="#58595B" d="M191.661,113.97h2.534l7.808,21.175h-3.205l-5.867-17.082l-5.87,17.082h-3.205L191.661,113.97z
			 M187.454,127.674h11.14v2.825h-11.14V127.674z"/>
	</g>
</g>
</svg>
